<?xml version="1.0" encoding="UTF-8"?>
<svg version="1.1" xmlns="http://www.w3.org/2000/svg" width="234" height="234">
<path d="M0 0 C4.30077608 3.66106659 8.30633825 7.56135863 12.13671875 11.7109375 C13.00296875 12.6184375 13.86921875 13.5259375 14.76171875 14.4609375 C16.13671875 16.7109375 16.13671875 16.7109375 16.02015686 19.02468872 C14.85087752 22.58008797 13.02947688 24.30549057 10.37670898 26.94091797 C9.63498695 27.6859256 9.63498695 27.6859256 8.87828064 28.44598389 C7.24341254 30.08316023 5.59471448 31.70560252 3.9453125 33.328125 C2.79925186 34.4692573 1.65400537 35.6112078 0.50953674 36.75393677 C-1.89302783 39.14886128 -4.30189763 41.53718227 -6.71606445 43.92041016 C-9.79191431 46.95688703 -12.85708355 50.0038499 -15.91816807 53.05520439 C-18.85602713 55.98301774 -21.79875303 58.90591839 -24.7421875 61.828125 C-25.29514559 62.37768734 -25.84810368 62.92724968 -26.41781807 63.49346542 C-31.88975901 68.92496662 -37.36317337 74.31268232 -43.2464447 79.30447388 C-44.91201219 80.69104474 -44.91201219 80.69104474 -46.36280823 82.41061401 C-46.85796432 82.83972076 -47.35312042 83.26882751 -47.86328125 83.7109375 C-50.9672384 83.48519516 -53.79551742 83.00705824 -56.79296875 82.17578125 C-65.79578716 80.15439372 -75.12103656 81.95351334 -83.05078125 86.3984375 C-91.25594729 91.66500919 -95.85384151 98.49522207 -98.46484375 107.87109375 C-99.05665276 112.08918343 -98.9670115 116.27037836 -98.92578125 120.5234375 C-98.92126953 121.40708984 -98.91675781 122.29074219 -98.91210938 123.20117188 C-98.90037991 125.37112309 -98.8824462 127.54103922 -98.86328125 129.7109375 C-94.74980078 126.26904568 -90.85185089 122.73586687 -87.1328125 118.87109375 C-86.47224854 118.18926025 -85.81168457 117.50742676 -85.13110352 116.80493164 C-83.7914084 115.41466364 -82.46230131 114.01411049 -81.14428711 112.60327148 C-80.52046143 111.95817627 -79.89663574 111.31308105 -79.25390625 110.6484375 C-78.69735352 110.05933594 -78.14080078 109.47023437 -77.56738281 108.86328125 C-75.86328125 107.7109375 -75.86328125 107.7109375 -73.93774414 107.77026367 C-69.17907235 109.92810319 -65.69049522 114.37302635 -62.05078125 118.0234375 C-61.15423828 118.89162109 -60.25769531 119.75980469 -59.33398438 120.65429688 C-58.49158203 121.49412109 -57.64917969 122.33394531 -56.78125 123.19921875 C-56.00547607 123.96790283 -55.22970215 124.73658691 -54.43041992 125.52856445 C-52.86328125 127.7109375 -52.86328125 127.7109375 -52.83886719 129.69506836 C-54.25087074 132.47364637 -56.11147705 134.294073 -58.3359375 136.4765625 C-59.23505859 137.36601562 -60.13417969 138.25546875 -61.06054688 139.171875 C-62.00607422 140.09226563 -62.95160156 141.01265625 -63.92578125 141.9609375 C-64.88545098 142.90555423 -65.84444354 143.85085945 -66.80273438 144.796875 C-69.14966953 147.10842922 -71.50331516 149.4127009 -73.86328125 151.7109375 C-71.88155194 153.69266681 -68.12773239 152.95059219 -65.42578125 152.9609375 C-54.95896105 152.94469908 -46.64586156 151.14204644 -38.86328125 143.7109375 C-32.03022898 136.0876683 -28.7115597 128.12373292 -28.73828125 117.8359375 C-28.73441406 116.77890625 -28.73054687 115.721875 -28.7265625 114.6328125 C-28.75558549 111.54987212 -28.75558549 111.54987212 -29.92578125 108.0859375 C-29.84791486 103.88115234 -28.89032291 103.24594001 -26.07543945 100.22875977 C-25.24984528 99.3417337 -24.4242511 98.45470764 -23.57363892 97.540802 C-18.90012597 92.66122152 -14.17495065 87.83698058 -9.40625 83.05078125 C-8.8789007 82.52060457 -8.3515514 81.99042789 -7.80822182 81.44418526 C-5.03113488 78.65227082 -2.2513164 75.86311285 0.53100586 73.07641602 C3.39697419 70.2049078 6.25350271 67.32419049 9.10808277 64.44136715 C11.31723687 62.21362262 13.53303821 59.99258222 15.75073814 57.77334785 C16.80778029 56.71328341 17.86232602 55.65072344 18.91428566 54.58561516 C20.37834918 53.10452584 21.85155075 51.6331584 23.32739258 50.16381836 C24.16184402 49.32572128 24.99629547 48.48762421 25.85603333 47.62413025 C28.06805028 45.76854124 29.31547488 45.0789787 32.13671875 44.7109375 C43.45112575 72.85337115 43.32310746 104.59379831 32.13671875 132.7109375 C28.4151701 141.33381582 23.84369625 149.24606237 18.13671875 156.7109375 C17.53214844 157.51917969 16.92757812 158.32742187 16.3046875 159.16015625 C-0.89921347 181.47967747 -23.50534378 195.29135904 -50.86328125 201.7109375 C-51.8996875 201.95585937 -52.93609375 202.20078125 -54.00390625 202.453125 C-83.76123437 208.13973482 -115.99865076 201.04927323 -141.10546875 184.3671875 C-166.83126 166.5306389 -183.81103005 139.10980773 -189.73828125 108.5234375 C-194.82217446 78.31160221 -188.04814839 46.55317577 -170.5859375 21.33984375 C-152.04555172 -4.24322095 -124.72405881 -21.28382664 -93.53076172 -26.51318359 C-59.69637193 -31.31573355 -26.22500427 -21.6707564 0 0 Z " fill="#202020" transform="translate(191.86328125,28.2890625)"/>
<path d="M0 0 C3.125 6.5 3.125 6.5 2 11 C1.01 8.36 0.02 5.72 -1 3 C-3.64 4.98 -6.28 6.96 -9 9 C-9.66 8.67 -10.32 8.34 -11 8 C-9.87811441 6.85111717 -8.75238316 5.70598863 -7.625 4.5625 C-6.99851563 3.92441406 -6.37203125 3.28632812 -5.7265625 2.62890625 C-3.74785826 0.76211967 -2.74097805 0 0 0 Z " fill="#353235" transform="translate(224,73)"/>
<path d="M0 0 C0.99 0.33 1.98 0.66 3 1 C2.34 1.66 1.68 2.32 1 3 C0.443125 3.5775 -0.11375 4.155 -0.6875 4.75 C-3.66799083 7.64993703 -6.82116821 10.32120917 -10 13 C-10.66 12.67 -11.32 12.34 -12 12 C-8.04 8.04 -4.08 4.08 0 0 Z " fill="#343134" transform="translate(116,136)"/>
<path d="M0 0 C1.32 0 2.64 0 4 0 C4.33 0.66 4.66 1.32 5 2 C5.99 2 6.98 2 8 2 C5.36 4.31 2.72 6.62 0 9 C-0.66 8.67 -1.32 8.34 -2 8 C-1.67 7.236875 -1.34 6.47375 -1 5.6875 C0.17436686 3.00930865 0.17436686 3.00930865 0 0 Z " fill="#2B2729" transform="translate(186,201)"/>
<path d="M0 0 C0.33 0 0.66 0 1 0 C1.33 6.6 1.66 13.2 2 20 C-1 17 -1 17 -1.2487793 15.09887695 C-1.19117432 14.40238037 -1.13356934 13.70588379 -1.07421875 12.98828125 C-1.01943359 12.23095703 -0.96464844 11.47363281 -0.90820312 10.69335938 C-0.83537109 9.90767578 -0.76253906 9.12199219 -0.6875 8.3125 C-0.62626953 7.51521484 -0.56503906 6.71792969 -0.50195312 5.89648438 C-0.34886031 3.92983047 -0.17629291 1.96471011 0 0 Z " fill="#100E11" transform="translate(90,138)"/>
<path d="M0 0 C1.90294128 1.60168408 2.90495491 2.48389495 3.36328125 4.97265625 C3.22222222 10.77777778 3.22222222 10.77777778 1 13 C-0.32229189 10.35541621 -0.09677194 8.32238699 -0.0625 5.375 C-0.05347656 4.37210937 -0.04445312 3.36921875 -0.03515625 2.3359375 C-0.02355469 1.56507812 -0.01195312 0.79421875 0 0 Z " fill="#19171B" transform="translate(228,95)"/>
<path d="M0 0 C2.64 0.33 5.28 0.66 8 1 C5.37801226 3.15377564 3.35595828 4.40072174 0 5 C0 3.35 0 1.7 0 0 Z " fill="#2E2C2D" transform="translate(161,218)"/>
</svg>
